<?xml version="1.0" standalone="no"?>
<!DOCTYPE svg PUBLIC "-//W3C//DTD SVG 20010904//EN"
 "http://www.w3.org/TR/2001/REC-SVG-20010904/DTD/svg10.dtd">
<svg version="1.0" xmlns="http://www.w3.org/2000/svg"
 width="300.000000pt" height="300.000000pt" viewBox="0 0 300.000000 300.000000"
 preserveAspectRatio="xMidYMid meet">
<metadata>
Created by potrace 1.14, written by Peter Selinger 2001-2017
</metadata>
<g transform="translate(0.000000,300.000000) scale(0.100000,-0.100000)"
fill="#000000" stroke="none">
<path d="M1980 2965 c-175 -50 -334 -182 -418 -344 -45 -88 -75 -205 -70 -272
3 -42 4 -44 38 -47 144 -15 372 127 469 291 64 108 111 287 95 359 -5 24 -10
28 -37 27 -18 0 -52 -7 -77 -14z"/>
<path d="M1940 2259 c-50 -9 -96 -24 -320 -104 -96 -35 -129 -31 -296 33 -192
75 -276 86 -422 56 -219 -44 -415 -205 -516 -426 -58 -125 -77 -214 -83 -393
-8 -225 17 -386 93 -611 105 -314 357 -671 544 -770 27 -15 56 -19 130 -19 90
0 101 3 212 48 143 58 208 71 313 64 78 -6 101 -12 283 -83 52 -21 85 -27 152
-28 76 -1 92 2 154 32 114 54 258 218 389 444 42 74 127 271 127 296 0 5 -30
27 -67 48 -102 59 -203 165 -252 266 -55 111 -74 205 -68 333 6 116 41 228
101 317 35 54 154 175 190 195 29 16 13 45 -69 121 -84 79 -178 132 -285 161
-88 25 -233 34 -310 20z"/>
</g>
</svg>
